<?xml version="1.0" standalone="no"?>
<!DOCTYPE svg PUBLIC "-//W3C//DTD SVG 20010904//EN"
 "http://www.w3.org/TR/2001/REC-SVG-20010904/DTD/svg10.dtd">
<svg version="1.0" xmlns="http://www.w3.org/2000/svg"
 width="700.000000pt" height="700.000000pt" viewBox="0 0 700.000000 700.000000"
 preserveAspectRatio="xMidYMid meet">
<metadata>
Created by potrace 1.14, written by Peter Selinger 2001-2017
</metadata>
<g transform="translate(0.000000,700.000000) scale(0.100000,-0.100000)"
fill="#000000" stroke="none">
<path d="M3185 5954 c-132 -20 -146 -23 -260 -55 -336 -95 -637 -285 -854
-540 -85 -100 -90 -106 -143 -188 -300 -458 -311 -1024 -31 -1559 56 -108 97
-170 168 -260 63 -79 68 -79 79 -4 8 59 52 233 78 307 44 127 125 308 171 380
6 10 35 55 63 100 156 245 377 474 607 628 302 202 657 331 997 364 97 9 334
10 430 1 100 -10 247 -36 340 -60 41 -11 91 -23 110 -27 19 -5 47 -13 62 -19
34 -14 31 -5 -25 90 -69 116 -137 200 -257 318 -205 204 -435 347 -707 439
-67 23 -130 44 -140 46 -44 9 -171 35 -203 41 -68 12 -404 11 -485 -2z"/>
<path d="M6830 5520 c0 -5 5 -10 11 -10 5 0 7 5 4 10 -3 6 -8 10 -11 10 -2 0
-4 -4 -4 -10z"/>
<path d="M6830 5160 c0 -5 5 -10 10 -10 6 0 10 5 10 10 0 6 -4 10 -10 10 -5 0
-10 -4 -10 -10z"/>
<path d="M4129 4725 c-2 -2 -24 -6 -49 -10 -70 -11 -83 -14 -115 -20 -46 -9
-173 -43 -237 -63 l-58 -18 83 -28 c107 -36 300 -129 407 -195 247 -153 486
-394 640 -646 141 -229 248 -526 285 -795 11 -79 14 -403 5 -470 -5 -36 -12
-81 -14 -100 -3 -19 -7 -42 -10 -50 -3 -8 -7 -28 -9 -45 -11 -76 -76 -282
-119 -379 -73 -164 -196 -363 -302 -486 -30 -35 -53 -66 -51 -68 9 -9 260 84
363 134 143 69 225 122 338 217 207 174 363 376 479 620 60 125 125 319 141
417 3 14 7 36 9 50 12 58 14 72 21 137 12 113 5 428 -11 453 -2 3 -6 23 -9 45
-4 22 -18 81 -31 131 -106 389 -337 710 -665 923 -71 46 -141 82 -275 141 -39
18 -221 69 -280 80 -33 5 -71 13 -85 16 -27 7 -445 15 -451 9z"/>
<path d="M1245 4057 c-55 -90 -87 -153 -151 -292 -37 -81 -116 -349 -128 -435
-3 -19 -8 -57 -12 -85 -22 -163 -7 -405 37 -595 148 -638 618 -1175 1197
-1369 257 -86 481 -123 747 -125 483 -3 926 165 1245 475 244 236 412 571 455
909 4 30 9 63 11 73 1 10 0 16 -4 13 -4 -2 -45 -30 -92 -61 -129 -85 -393
-208 -495 -230 -5 -1 -28 -7 -51 -13 -43 -13 -126 -29 -184 -38 -19 -2 -44 -6
-55 -9 -81 -17 -394 -25 -530 -13 -38 3 -128 16 -200 28 -109 19 -137 21 -173
11 -25 -6 -156 -84 -308 -181 -146 -94 -276 -173 -290 -176 -29 -7 -72 18 -83
49 -5 12 -4 35 0 51 5 16 11 47 15 70 3 22 7 43 9 47 3 5 23 92 41 178 3 12
11 52 19 86 16 68 12 126 -11 162 -8 12 -40 41 -72 65 -472 345 -785 811 -893
1328 -12 58 -22 106 -23 107 -1 1 -11 -12 -21 -30z"/>
</g>
</svg>
